<?xml version="1.0" encoding="UTF-8" standalone="no"?>
<!-- Created with Inkscape (http://www.inkscape.org/) -->

<svg
        version="1.1"
        id="svg2520"
        width="21.333332"
        height="21.333332"
        viewBox="0 0 21.333332 21.333332"
        sodipodi:docname="adams_icon_bw.svg"
        inkscape:version="1.2.2 (b0a8486541, 2022-12-01)"
        xmlns:inkscape="http://www.inkscape.org/namespaces/inkscape"
        xmlns:sodipodi="http://sodipodi.sourceforge.net/DTD/sodipodi-0.dtd"
        xmlns="http://www.w3.org/2000/svg"
>
  <defs
     id="defs2524" />
  <sodipodi:namedview
     id="namedview2522"
     pagecolor="#a7abd7"
     bordercolor="#000000"
     borderopacity="0.25"
     inkscape:showpageshadow="2"
     inkscape:pageopacity="0.0"
     inkscape:pagecheckerboard="0"
     inkscape:deskcolor="#d1d1d1"
     showgrid="false"
     inkscape:zoom="39.890627"
     inkscape:cx="8.7990594"
     inkscape:cy="10.6792"
     inkscape:window-width="1920"
     inkscape:window-height="1028"
     inkscape:window-x="0"
     inkscape:window-y="0"
     inkscape:window-maximized="1"
     inkscape:current-layer="g2526" />
  <g
     inkscape:groupmode="layer"
     inkscape:label="Image"
     id="g2526">
    <g
       id="g2655"
       transform="translate(0.02860111,-0.06080928)">
      <path
         style="fill:#07159d;fill-opacity:0;stroke-width:1.33333"
         d="m 19.999999,19.999999 h 1.333333 v 1.333333 h -1.333333"
         id="path3167" />
      <path
         style="fill:#07159d;fill-opacity:0;stroke-width:1.33333"
         d="m 18.666665,19.999999 h 1.333334 v 1.333333 h -1.333334"
         id="path3165" />
      <path
         style="fill:#07159d;fill-opacity:0;stroke-width:1.33333"
         d="m 17.333332,19.999999 h 1.333333 v 1.333333 h -1.333333"
         id="path3163" />
      <path
         style="fill:#07159d;fill-opacity:0;stroke-width:1.33333"
         d="m 15.999999,19.999999 h 1.333333 v 1.333333 h -1.333333"
         id="path3161" />
      <path
         style="fill:#07159d;fill-opacity:0;stroke-width:1.33333"
         d="m 14.666666,19.999999 h 1.333333 v 1.333333 h -1.333333"
         id="path3159" />
      <path
         style="fill:#07159d;fill-opacity:0;stroke-width:1.33333"
         d="m 13.333332,19.999999 h 1.333334 v 1.333333 h -1.333334"
         id="path3157" />
      <path
         style="fill:#07159d;fill-opacity:0;stroke-width:1.33333"
         d="m 11.999999,19.999999 h 1.333333 v 1.333333 h -1.333333"
         id="path3155" />
      <path
         style="fill:#07159d;fill-opacity:0;stroke-width:1.33333"
         d="m 10.666666,19.999999 h 1.333333 v 1.333333 h -1.333333"
         id="path3153" />
      <path
         style="fill:#07159d;fill-opacity:0;stroke-width:1.33333"
         d="m 9.3333328,19.999999 h 1.3333332 v 1.333333 H 9.3333328"
         id="path3151" />
      <path
         style="fill:#07159d;fill-opacity:0;stroke-width:1.33333"
         d="m 7.9999995,19.999999 h 1.3333333 v 1.333333 H 7.9999995"
         id="path3149" />
      <path
         style="fill:#07159d;fill-opacity:0;stroke-width:1.33333"
         d="m 6.6666662,19.999999 h 1.3333333 v 1.333333 H 6.6666662"
         id="path3147" />
      <path
         style="fill:#07159d;fill-opacity:0;stroke-width:1.33333"
         d="m 5.333333,19.999999 h 1.3333332 v 1.333333 H 5.333333"
         id="path3145" />
      <path
         style="fill:#07159d;fill-opacity:0;stroke-width:1.33333"
         d="M 3.9999997,19.999999 H 5.333333 v 1.333333 H 3.9999997"
         id="path3143" />
      <path
         style="fill:#07159d;fill-opacity:0;stroke-width:1.33333"
         d="m 2.6666665,19.999999 h 1.3333332 v 1.333333 H 2.6666665"
         id="path3141" />
      <path
         style="fill:#07159d;fill-opacity:0;stroke-width:1.33333"
         d="m 1.3333332,19.999999 h 1.3333333 v 1.333333 H 1.3333332"
         id="path3139" />
      <path
         style="fill:#07159d;fill-opacity:0;stroke-width:1.33333"
         d="m 0,19.999999 h 1.3333332 v 1.333333 H 0"
         id="path3137" />
      <path
         style="fill:#07159d;fill-opacity:0;stroke-width:1.33333"
         d="m 19.999999,18.666665 h 1.333333 v 1.333334 h -1.333333"
         id="path3135" />
      <path
         style="fill:#07159d;fill-opacity:0;stroke-width:1.33333"
         d="m 18.666665,18.666665 h 1.333334 v 1.333334 h -1.333334"
         id="path3133" />
      <path
         style="fill:#07159d;fill-opacity:0;stroke-width:1.33333"
         d="m 17.333332,18.666665 h 1.333333 v 1.333334 h -1.333333"
         id="path3131" />
      <path
         style="fill:#07159d;fill-opacity:1;stroke-width:1.33333"
         d="m 15.999999,18.666665 h 1.333333 v 1.333334 h -1.333333"
         id="path3129" />
      <path
         style="fill:#07159d;fill-opacity:1;stroke-width:1.33333"
         d="m 14.666666,18.666665 h 1.333333 v 1.333334 h -1.333333"
         id="path3127" />
      <path
         style="fill:#07159d;fill-opacity:1;stroke-width:1.33333"
         d="m 13.333332,18.666665 h 1.333334 v 1.333334 h -1.333334"
         id="path3125" />
      <path
         style="fill:#07159d;fill-opacity:0;stroke-width:1.33333"
         d="m 11.999999,18.666665 h 1.333333 v 1.333334 h -1.333333"
         id="path3123" />
      <path
         style="fill:#07159d;fill-opacity:0;stroke-width:1.33333"
         d="m 10.666666,18.666665 h 1.333333 v 1.333334 h -1.333333"
         id="path3121" />
      <path
         style="fill:#07159d;fill-opacity:0;stroke-width:1.33333"
         d="m 9.3333328,18.666665 h 1.3333332 v 1.333334 H 9.3333328"
         id="path3119" />
      <path
         style="fill:#07159d;fill-opacity:1;stroke-width:1.33333"
         d="m 7.9999995,18.666665 h 1.3333333 v 1.333334 H 7.9999995"
         id="path3117" />
      <path
         style="fill:#07159d;fill-opacity:0;stroke-width:1.33333"
         d="m 6.6666662,18.666665 h 1.3333333 v 1.333334 H 6.6666662"
         id="path3115" />
      <path
         style="fill:#07159d;fill-opacity:0;stroke-width:1.33333"
         d="m 5.333333,18.666665 h 1.3333332 v 1.333334 H 5.333333"
         id="path3113" />
      <path
         style="fill:#07159d;fill-opacity:0;stroke-width:1.33333"
         d="M 3.9999997,18.666665 H 5.333333 v 1.333334 H 3.9999997"
         id="path3111" />
      <path
         style="fill:#07159d;fill-opacity:1;stroke-width:1.33333"
         d="m 2.6666665,18.666665 h 1.3333332 v 1.333334 H 2.6666665"
         id="path3109" />
      <path
         style="fill:#07159d;fill-opacity:0;stroke-width:1.33333"
         d="m 1.3333332,18.666665 h 1.3333333 v 1.333334 H 1.3333332"
         id="path3107" />
      <path
         style="fill:#07159d;fill-opacity:0;stroke-width:1.33333"
         d="m 0,18.666665 h 1.3333332 v 1.333334 H 0"
         id="path3105" />
      <path
         style="fill:#07159d;fill-opacity:0;stroke-width:1.33333"
         d="m 19.999999,17.333332 h 1.333333 v 1.333333 h -1.333333"
         id="path3103" />
      <path
         style="fill:#07159d;fill-opacity:0;stroke-width:1.33333"
         d="m 18.666665,17.333332 h 1.333334 v 1.333333 h -1.333334"
         id="path3101" />
      <path
         style="fill:#07159d;fill-opacity:1;stroke-width:1.33333"
         d="m 17.333332,17.333332 h 1.333333 v 1.333333 h -1.333333"
         id="path3099" />
      <path
         style="fill:#07159d;fill-opacity:0;stroke-width:1.33333"
         d="m 15.999999,17.333332 h 1.333333 v 1.333333 h -1.333333"
         id="path3097" />
      <path
         style="fill:#07159d;fill-opacity:0;stroke-width:1.33333"
         d="m 14.666666,17.333332 h 1.333333 v 1.333333 h -1.333333"
         id="path3095" />
      <path
         style="fill:#07159d;fill-opacity:0;stroke-width:1.33333"
         d="m 13.333332,17.333332 h 1.333334 v 1.333333 h -1.333334"
         id="path3093" />
      <path
         style="fill:#07159d;fill-opacity:1;stroke-width:1.33333"
         d="m 11.999999,17.333332 h 1.333333 v 1.333333 h -1.333333"
         id="path3091" />
      <path
         style="fill:#07159d;fill-opacity:0;stroke-width:1.33333"
         d="m 10.666666,17.333332 h 1.333333 v 1.333333 h -1.333333"
         id="path3089" />
      <path
         style="fill:#07159d;fill-opacity:0;stroke-width:1.33333"
         d="m 9.3333328,17.333332 h 1.3333332 v 1.333333 H 9.3333328"
         id="path3087" />
      <path
         style="fill:#07159d;fill-opacity:1;stroke-width:1.33333"
         d="m 7.9999995,17.333332 h 1.3333333 v 1.333333 H 7.9999995"
         id="path3085" />
      <path
         style="fill:#07159d;fill-opacity:0;stroke-width:1.33333"
         d="m 6.6666662,17.333332 h 1.3333333 v 1.333333 H 6.6666662"
         id="path3083" />
      <path
         style="fill:#07159d;fill-opacity:0;stroke-width:1.33333"
         d="m 5.333333,17.333332 h 1.3333332 v 1.333333 H 5.333333"
         id="path3081" />
      <path
         style="fill:#07159d;fill-opacity:0;stroke-width:1.33333"
         d="M 3.9999997,17.333332 H 5.333333 v 1.333333 H 3.9999997"
         id="path3079" />
      <path
         style="fill:#07159d;fill-opacity:1;stroke-width:1.33333"
         d="m 2.6666665,17.333332 h 1.3333332 v 1.333333 H 2.6666665"
         id="path3077" />
      <path
         style="fill:#07159d;fill-opacity:0;stroke-width:1.33333"
         d="m 1.3333332,17.333332 h 1.3333333 v 1.333333 H 1.3333332"
         id="path3075" />
      <path
         style="fill:#07159d;fill-opacity:0;stroke-width:1.33333"
         d="m 0,17.333332 h 1.3333332 v 1.333333 H 0"
         id="path3073" />
      <path
         style="fill:#07159d;fill-opacity:0;stroke-width:1.33333"
         d="m 19.999999,15.999999 h 1.333333 v 1.333333 h -1.333333"
         id="path3071" />
      <path
         style="fill:#07159d;fill-opacity:0;stroke-width:1.33333"
         d="m 18.666665,15.999999 h 1.333334 v 1.333333 h -1.333334"
         id="path3069" />
      <path
         style="fill:#07159d;fill-opacity:1;stroke-width:1.33333"
         d="m 17.333332,15.999999 h 1.333333 v 1.333333 h -1.333333"
         id="path3067" />
      <path
         style="fill:#07159d;fill-opacity:0;stroke-width:1.33333"
         d="m 15.999999,15.999999 h 1.333333 v 1.333333 h -1.333333"
         id="path3065" />
      <path
         style="fill:#07159d;fill-opacity:0;stroke-width:1.33333"
         d="m 14.666666,15.999999 h 1.333333 v 1.333333 h -1.333333"
         id="path3063" />
      <path
         style="fill:#07159d;fill-opacity:0;stroke-width:1.33333"
         d="m 13.333332,15.999999 h 1.333334 v 1.333333 h -1.333334"
         id="path3061" />
      <path
         style="fill:#07159d;fill-opacity:0;stroke-width:1.33333"
         d="m 11.999999,15.999999 h 1.333333 v 1.333333 h -1.333333"
         id="path3059" />
      <path
         style="fill:#07159d;fill-opacity:0;stroke-width:1.33333"
         d="m 10.666666,15.999999 h 1.333333 v 1.333333 h -1.333333"
         id="path3057" />
      <path
         style="fill:#07159d;fill-opacity:0;stroke-width:1.33333"
         d="m 9.3333328,15.999999 h 1.3333332 v 1.333333 H 9.3333328"
         id="path3055" />
      <path
         style="fill:#07159d;fill-opacity:1;stroke-width:1.33333"
         d="m 7.9999995,15.999999 h 1.3333333 v 1.333333 H 7.9999995"
         id="path3053" />
      <path
         style="fill:#07159d;fill-opacity:0;stroke-width:1.33333"
         d="m 6.6666662,15.999999 h 1.3333333 v 1.333333 H 6.6666662"
         id="path3051" />
      <path
         style="fill:#07159d;fill-opacity:0;stroke-width:1.33333"
         d="m 5.333333,15.999999 h 1.3333332 v 1.333333 H 5.333333"
         id="path3049" />
      <path
         style="fill:#07159d;fill-opacity:0;stroke-width:1.33333"
         d="M 3.9999997,15.999999 H 5.333333 v 1.333333 H 3.9999997"
         id="path3047" />
      <path
         style="fill:#07159d;fill-opacity:1;stroke-width:1.33333"
         d="m 2.6666665,15.999999 h 1.3333332 v 1.333333 H 2.6666665"
         id="path3045" />
      <path
         style="fill:#07159d;fill-opacity:0;stroke-width:1.33333"
         d="m 1.3333332,15.999999 h 1.3333333 v 1.333333 H 1.3333332"
         id="path3043" />
      <path
         style="fill:#07159d;fill-opacity:0;stroke-width:1.33333"
         d="m 0,15.999999 h 1.3333332 v 1.333333 H 0"
         id="path3041" />
      <path
         style="fill:#07159d;fill-opacity:0;stroke-width:1.33333"
         d="m 19.999999,14.666666 h 1.333333 v 1.333333 h -1.333333"
         id="path3039" />
      <path
         style="fill:#07159d;fill-opacity:0;stroke-width:1.33333"
         d="m 18.666665,14.666666 h 1.333334 v 1.333333 h -1.333334"
         id="path3037" />
      <path
         style="fill:#07159d;fill-opacity:0;stroke-width:1.33333"
         d="m 17.333332,14.666666 h 1.333333 v 1.333333 h -1.333333"
         id="path3035" />
      <path
         style="fill:#07159d;fill-opacity:1;stroke-width:1.33333"
         d="m 15.999999,14.666666 h 1.333333 v 1.333333 h -1.333333"
         id="path3033" />
      <path
         style="fill:#07159d;fill-opacity:1;stroke-width:1.33333"
         d="m 14.666666,14.666666 h 1.333333 v 1.333333 h -1.333333"
         id="path3031" />
      <path
         style="fill:#07159d;fill-opacity:1;stroke-width:1.33333"
         d="m 13.333332,14.666666 h 1.333334 v 1.333333 h -1.333334"
         id="path3029" />
      <path
         style="fill:#07159d;fill-opacity:0;stroke-width:1.33333"
         d="m 11.999999,14.666666 h 1.333333 v 1.333333 h -1.333333"
         id="path3027" />
      <path
         style="fill:#07159d;fill-opacity:0;stroke-width:1.33333"
         d="m 10.666666,14.666666 h 1.333333 v 1.333333 h -1.333333"
         id="path3025" />
      <path
         style="fill:#07159d;fill-opacity:0;stroke-width:1.33333"
         d="m 9.3333328,14.666666 h 1.3333332 v 1.333333 H 9.3333328"
         id="path3023" />
      <path
         style="fill:#07159d;fill-opacity:1;stroke-width:1.33333"
         d="m 7.9999995,14.666666 h 1.3333333 v 1.333333 H 7.9999995"
         id="path3021" />
      <path
         style="fill:#07159d;fill-opacity:0;stroke-width:1.33333"
         d="m 6.6666662,14.666666 h 1.3333333 v 1.333333 H 6.6666662"
         id="path3019" />
      <path
         style="fill:#07159d;fill-opacity:1;stroke-width:1.33333"
         d="m 5.333333,14.666666 h 1.3333332 v 1.333333 H 5.333333"
         id="path3017" />
      <path
         style="fill:#07159d;fill-opacity:0;stroke-width:1.33333"
         d="M 3.9999997,14.666666 H 5.333333 v 1.333333 H 3.9999997"
         id="path3015" />
      <path
         style="fill:#07159d;fill-opacity:1;stroke-width:1.33333"
         d="m 2.6666665,14.666666 h 1.3333332 v 1.333333 H 2.6666665"
         id="path3013" />
      <path
         style="fill:#07159d;fill-opacity:0;stroke-width:1.33333"
         d="m 1.3333332,14.666666 h 1.3333333 v 1.333333 H 1.3333332"
         id="path3011" />
      <path
         style="fill:#07159d;fill-opacity:0;stroke-width:1.33333"
         d="m 0,14.666666 h 1.3333332 v 1.333333 H 0"
         id="path3009" />
      <path
         style="fill:#07159d;fill-opacity:0;stroke-width:1.33333"
         d="m 19.999999,13.333332 h 1.333333 v 1.333334 h -1.333333"
         id="path3007" />
      <path
         style="fill:#07159d;fill-opacity:0;stroke-width:1.33333"
         d="m 18.666665,13.333332 h 1.333334 v 1.333334 h -1.333334"
         id="path3005" />
      <path
         style="fill:#07159d;fill-opacity:1;stroke-width:1.33333"
         d="m 17.333332,13.333332 h 1.333333 v 1.333334 h -1.333333"
         id="path3003" />
      <path
         style="fill:#07159d;fill-opacity:0;stroke-width:1.33333"
         d="m 15.999999,13.333332 h 1.333333 v 1.333334 h -1.333333"
         id="path3001" />
      <path
         style="fill:#07159d;fill-opacity:0;stroke-width:1.33333"
         d="m 14.666666,13.333332 h 1.333333 v 1.333334 h -1.333333"
         id="path2999" />
      <path
         style="fill:#07159d;fill-opacity:0;stroke-width:1.33333"
         d="m 13.333332,13.333332 h 1.333334 v 1.333334 h -1.333334"
         id="path2997" />
      <path
         style="fill:#07159d;fill-opacity:1;stroke-width:1.33333"
         d="m 11.999999,13.333332 h 1.333333 v 1.333334 h -1.333333"
         id="path2995" />
      <path
         style="fill:#07159d;fill-opacity:0;stroke-width:1.33333"
         d="m 10.666666,13.333332 h 1.333333 v 1.333334 h -1.333333"
         id="path2993" />
      <path
         style="fill:#07159d;fill-opacity:0;stroke-width:1.33333"
         d="m 9.3333328,13.333332 h 1.3333332 v 1.333334 H 9.3333328"
         id="path2991" />
      <path
         style="fill:#07159d;fill-opacity:1;stroke-width:1.33333"
         d="m 7.9999995,13.333332 h 1.3333333 v 1.333334 H 7.9999995"
         id="path2989" />
      <path
         style="fill:#07159d;fill-opacity:1;stroke-width:1.33333"
         d="m 6.6666662,13.333332 h 1.3333333 v 1.333334 H 6.6666662"
         id="path2987" />
      <path
         style="fill:#07159d;fill-opacity:0;stroke-width:1.33333"
         d="m 5.333333,13.333332 h 1.3333332 v 1.333334 H 5.333333"
         id="path2985" />
      <path
         style="fill:#07159d;fill-opacity:1;stroke-width:1.33333"
         d="M 3.9999997,13.333332 H 5.333333 v 1.333334 H 3.9999997"
         id="path2983" />
      <path
         style="fill:#07159d;fill-opacity:1;stroke-width:1.33333"
         d="m 2.6666665,13.333332 h 1.3333332 v 1.333334 H 2.6666665"
         id="path2981" />
      <path
         style="fill:#07159d;fill-opacity:0;stroke-width:1.33333"
         d="m 1.3333332,13.333332 h 1.3333333 v 1.333334 H 1.3333332"
         id="path2979" />
      <path
         style="fill:#07159d;fill-opacity:0;stroke-width:1.33333"
         d="m 0,13.333332 h 1.3333332 v 1.333334 H 0"
         id="path2977" />
      <path
         style="fill:#07159d;fill-opacity:0;stroke-width:1.33333"
         d="m 19.999999,11.999999 h 1.333333 v 1.333333 h -1.333333"
         id="path2975" />
      <path
         style="fill:#07159d;fill-opacity:0;stroke-width:1.33333"
         d="m 18.666665,11.999999 h 1.333334 v 1.333333 h -1.333334"
         id="path2973" />
      <path
         style="fill:#07159d;fill-opacity:0;stroke-width:1.33333"
         d="m 17.333332,11.999999 h 1.333333 v 1.333333 h -1.333333"
         id="path2971" />
      <path
         style="fill:#07159d;fill-opacity:1;stroke-width:1.33333"
         d="m 15.999999,11.999999 h 1.333333 v 1.333333 h -1.333333"
         id="path2969" />
      <path
         style="fill:#07159d;fill-opacity:1;stroke-width:1.33333"
         d="m 14.666666,11.999999 h 1.333333 v 1.333333 h -1.333333"
         id="path2967" />
      <path
         style="fill:#07159d;fill-opacity:1;stroke-width:1.33333"
         d="m 13.333332,11.999999 h 1.333334 v 1.333333 h -1.333334"
         id="path2965" />
      <path
         style="fill:#07159d;fill-opacity:0;stroke-width:1.33333"
         d="m 11.999999,11.999999 h 1.333333 v 1.333333 h -1.333333"
         id="path2963" />
      <path
         style="fill:#07159d;fill-opacity:0;stroke-width:1.33333"
         d="m 10.666666,11.999999 h 1.333333 v 1.333333 h -1.333333"
         id="path2961" />
      <path
         style="fill:#07159d;fill-opacity:0;stroke-width:1.33333"
         d="m 9.3333328,11.999999 h 1.3333332 v 1.333333 H 9.3333328"
         id="path2959" />
      <path
         style="fill:#07159d;fill-opacity:1;stroke-width:1.33333"
         d="m 7.9999995,11.999999 h 1.3333333 v 1.333333 H 7.9999995"
         id="path2957" />
      <path
         style="fill:#07159d;fill-opacity:0;stroke-width:1.33333"
         d="m 6.6666662,11.999999 h 1.3333333 v 1.333333 H 6.6666662"
         id="path2955" />
      <path
         style="fill:#07159d;fill-opacity:0;stroke-width:1.33333"
         d="m 5.333333,11.999999 h 1.3333332 v 1.333333 H 5.333333"
         id="path2953" />
      <path
         style="fill:#07159d;fill-opacity:0;stroke-width:1.33333"
         d="M 3.9999997,11.999999 H 5.333333 v 1.333333 H 3.9999997"
         id="path2951" />
      <path
         style="fill:#07159d;fill-opacity:1;stroke-width:1.33333"
         d="m 2.6666665,11.999999 h 1.3333332 v 1.333333 H 2.6666665"
         id="path2949" />
      <path
         style="fill:#07159d;fill-opacity:0;stroke-width:1.33333"
         d="m 1.3333332,11.999999 h 1.3333333 v 1.333333 H 1.3333332"
         id="path2947" />
      <path
         style="fill:#07159d;fill-opacity:0;stroke-width:1.33333"
         d="m 0,11.999999 h 1.3333332 v 1.333333 H 0"
         id="path2945" />
      <path
         style="fill:#07159d;fill-opacity:0;stroke-width:1.33333"
         d="m 19.999999,10.666666 h 1.333333 v 1.333333 h -1.333333"
         id="path2943" />
      <path
         style="fill:#07159d;fill-opacity:0;stroke-width:1.33333"
         d="m 18.666665,10.666666 h 1.333334 v 1.333333 h -1.333334"
         id="path2941" />
      <path
         style="fill:#07159d;fill-opacity:0;stroke-width:1.33333"
         d="m 17.333332,10.666666 h 1.333333 v 1.333333 h -1.333333"
         id="path2939" />
      <path
         style="fill:#07159d;fill-opacity:0;stroke-width:1.33333"
         d="m 15.999999,10.666666 h 1.333333 v 1.333333 h -1.333333"
         id="path2937" />
      <path
         style="fill:#07159d;fill-opacity:0;stroke-width:1.33333"
         d="m 14.666666,10.666666 h 1.333333 v 1.333333 h -1.333333"
         id="path2935" />
      <path
         style="fill:#07159d;fill-opacity:0;stroke-width:1.33333"
         d="m 13.333332,10.666666 h 1.333334 v 1.333333 h -1.333334"
         id="path2933" />
      <path
         style="fill:#07159d;fill-opacity:0;stroke-width:1.33333"
         d="m 11.999999,10.666666 h 1.333333 v 1.333333 h -1.333333"
         id="path2931" />
      <path
         style="fill:#07159d;fill-opacity:0;stroke-width:1.33333"
         d="m 10.666666,10.666666 h 1.333333 v 1.333333 h -1.333333"
         id="path2929" />
      <path
         style="fill:#07159d;fill-opacity:0;stroke-width:1.33333"
         d="m 9.3333328,10.666666 h 1.3333332 v 1.333333 H 9.3333328"
         id="path2927" />
      <path
         style="fill:#07159d;fill-opacity:0;stroke-width:1.33333"
         d="m 7.9999995,10.666666 h 1.3333333 v 1.333333 H 7.9999995"
         id="path2925" />
      <path
         style="fill:#07159d;fill-opacity:0;stroke-width:1.33333"
         d="m 6.6666662,10.666666 h 1.3333333 v 1.333333 H 6.6666662"
         id="path2923" />
      <path
         style="fill:#07159d;fill-opacity:0;stroke-width:1.33333"
         d="m 5.333333,10.666666 h 1.3333332 v 1.333333 H 5.333333"
         id="path2921" />
      <path
         style="fill:#07159d;fill-opacity:0;stroke-width:1.33333"
         d="M 3.9999997,10.666666 H 5.333333 v 1.333333 H 3.9999997"
         id="path2919" />
      <path
         style="fill:#07159d;fill-opacity:0;stroke-width:1.33333"
         d="m 2.6666665,10.666666 h 1.3333332 v 1.333333 H 2.6666665"
         id="path2917" />
      <path
         style="fill:#07159d;fill-opacity:0;stroke-width:1.33333"
         d="m 1.3333332,10.666666 h 1.3333333 v 1.333333 H 1.3333332"
         id="path2915" />
      <path
         style="fill:#07159d;fill-opacity:0;stroke-width:1.33333"
         d="m 0,10.666666 h 1.3333332 v 1.333333 H 0"
         id="path2913" />
      <path
         style="fill:#07159d;fill-opacity:0;stroke-width:1.33333"
         d="m 19.999999,9.3333328 h 1.333333 v 1.3333332 h -1.333333"
         id="path2911" />
      <path
         style="fill:#07159d;fill-opacity:0;stroke-width:1.33333"
         d="m 18.666665,9.3333328 h 1.333334 v 1.3333332 h -1.333334"
         id="path2909" />
      <path
         style="fill:#07159d;fill-opacity:0;stroke-width:1.33333"
         d="m 17.333332,9.3333328 h 1.333333 v 1.3333332 h -1.333333"
         id="path2907" />
      <path
         style="fill:#07159d;fill-opacity:0;stroke-width:1.33333"
         d="m 15.999999,9.3333328 h 1.333333 v 1.3333332 h -1.333333"
         id="path2905" />
      <path
         style="fill:#07159d;fill-opacity:0;stroke-width:1.33333"
         d="m 14.666666,9.3333328 h 1.333333 v 1.3333332 h -1.333333"
         id="path2903" />
      <path
         style="fill:#07159d;fill-opacity:0;stroke-width:1.33333"
         d="m 13.333332,9.3333328 h 1.333334 v 1.3333332 h -1.333334"
         id="path2901" />
      <path
         style="fill:#07159d;fill-opacity:0;stroke-width:1.33333"
         d="m 11.999999,9.3333328 h 1.333333 v 1.3333332 h -1.333333"
         id="path2899" />
      <path
         style="fill:#07159d;fill-opacity:0;stroke-width:1.33333"
         d="m 10.666666,9.3333328 h 1.333333 v 1.3333332 h -1.333333"
         id="path2897" />
      <path
         style="fill:#07159d;fill-opacity:0;stroke-width:1.33333"
         d="M 9.3333328,9.3333328 H 10.666666 V 10.666666 H 9.3333328"
         id="path2895" />
      <path
         style="fill:#07159d;fill-opacity:0;stroke-width:1.33333"
         d="M 7.9999995,9.3333328 H 9.3333328 V 10.666666 H 7.9999995"
         id="path2893" />
      <path
         style="fill:#07159d;fill-opacity:0;stroke-width:1.33333"
         d="M 6.6666662,9.3333328 H 7.9999995 V 10.666666 H 6.6666662"
         id="path2891" />
      <path
         style="fill:#07159d;fill-opacity:0;stroke-width:1.33333"
         d="M 5.333333,9.3333328 H 6.6666662 V 10.666666 H 5.333333"
         id="path2889" />
      <path
         style="fill:#07159d;fill-opacity:0;stroke-width:1.33333"
         d="M 3.9999997,9.3333328 H 5.333333 V 10.666666 H 3.9999997"
         id="path2887" />
      <path
         style="fill:#07159d;fill-opacity:0;stroke-width:1.33333"
         d="M 2.6666665,9.3333328 H 3.9999997 V 10.666666 H 2.6666665"
         id="path2885" />
      <path
         style="fill:#07159d;fill-opacity:0;stroke-width:1.33333"
         d="M 1.3333332,9.3333328 H 2.6666665 V 10.666666 H 1.3333332"
         id="path2883" />
      <path
         style="fill:#07159d;fill-opacity:0;stroke-width:1.33333"
         d="M 0,9.3333328 H 1.3333332 V 10.666666 H 0"
         id="path2881" />
      <path
         style="fill:#07159d;fill-opacity:0;stroke-width:1.33333"
         d="m 19.999999,7.9999995 h 1.333333 v 1.3333333 h -1.333333"
         id="path2879" />
      <path
         style="fill:#07159d;fill-opacity:0;stroke-width:1.33333"
         d="m 18.666665,7.9999995 h 1.333334 v 1.3333333 h -1.333334"
         id="path2877" />
      <path
         style="fill:#07159d;fill-opacity:0;stroke-width:1.33333"
         d="m 17.333332,7.9999995 h 1.333333 v 1.3333333 h -1.333333"
         id="path2875" />
      <path
         style="fill:#07159d;fill-opacity:1;stroke-width:1.33333"
         d="m 15.999999,7.9999995 h 1.333333 v 1.3333333 h -1.333333"
         id="path2873" />
      <path
         style="fill:#07159d;fill-opacity:1;stroke-width:1.33333"
         d="m 14.666666,7.9999995 h 1.333333 v 1.3333333 h -1.333333"
         id="path2871" />
      <path
         style="fill:#07159d;fill-opacity:1;stroke-width:1.33333"
         d="m 13.333332,7.9999995 h 1.333334 v 1.3333333 h -1.333334"
         id="path2869" />
      <path
         style="fill:#07159d;fill-opacity:1;stroke-width:1.33333"
         d="m 11.999999,7.9999995 h 1.333333 v 1.3333333 h -1.333333"
         id="path2867" />
      <path
         style="fill:#07159d;fill-opacity:0;stroke-width:1.33333"
         d="m 10.666666,7.9999995 h 1.333333 v 1.3333333 h -1.333333"
         id="path2865" />
      <path
         style="fill:#07159d;fill-opacity:0;stroke-width:1.33333"
         d="M 9.3333328,7.9999995 H 10.666666 V 9.3333328 H 9.3333328"
         id="path2863" />
      <path
         style="fill:#07159d;fill-opacity:1;stroke-width:1.33333"
         d="M 7.9999995,7.9999995 H 9.3333328 V 9.3333328 H 7.9999995"
         id="path2861" />
      <path
         style="fill:#07159d;fill-opacity:0;stroke-width:1.33333"
         d="M 6.6666662,7.9999995 H 7.9999995 V 9.3333328 H 6.6666662"
         id="path2859" />
      <path
         style="fill:#07159d;fill-opacity:0;stroke-width:1.33333"
         d="M 5.333333,7.9999995 H 6.6666662 V 9.3333328 H 5.333333"
         id="path2857" />
      <path
         style="fill:#07159d;fill-opacity:0;stroke-width:1.33333"
         d="M 3.9999997,7.9999995 H 5.333333 V 9.3333328 H 3.9999997"
         id="path2855" />
      <path
         style="fill:#07159d;fill-opacity:1;stroke-width:1.33333"
         d="M 2.6666665,7.9999995 H 3.9999997 V 9.3333328 H 2.6666665"
         id="path2853" />
      <path
         style="fill:#07159d;fill-opacity:0;stroke-width:1.33333"
         d="M 1.3333332,7.9999995 H 2.6666665 V 9.3333328 H 1.3333332"
         id="path2851" />
      <path
         style="fill:#07159d;fill-opacity:0;stroke-width:1.33333"
         d="M 0,7.9999995 H 1.3333332 V 9.3333328 H 0"
         id="path2849" />
      <path
         style="fill:#07159d;fill-opacity:0;stroke-width:1.33333"
         d="m 19.999999,6.6666662 h 1.333333 v 1.3333333 h -1.333333"
         id="path2847" />
      <path
         style="fill:#07159d;fill-opacity:0;stroke-width:1.33333"
         d="m 18.666665,6.6666662 h 1.333334 v 1.3333333 h -1.333334"
         id="path2845" />
      <path
         style="fill:#07159d;fill-opacity:1;stroke-width:1.33333"
         d="m 17.333332,6.6666662 h 1.333333 v 1.3333333 h -1.333333"
         id="path2843" />
      <path
         style="fill:#07159d;fill-opacity:0;stroke-width:1.33333"
         d="m 15.999999,6.6666662 h 1.333333 v 1.3333333 h -1.333333"
         id="path2841" />
      <path
         style="fill:#07159d;fill-opacity:0;stroke-width:1.33333"
         d="m 14.666666,6.6666662 h 1.333333 v 1.3333333 h -1.333333"
         id="path2839" />
      <path
         style="fill:#07159d;fill-opacity:0;stroke-width:1.33333"
         d="m 13.333332,6.6666662 h 1.333334 v 1.3333333 h -1.333334"
         id="path2837" />
      <path
         style="fill:#07159d;fill-opacity:1;stroke-width:1.33333"
         d="m 11.999999,6.6666662 h 1.333333 v 1.3333333 h -1.333333"
         id="path2835" />
      <path
         style="fill:#07159d;fill-opacity:0;stroke-width:1.33333"
         d="m 10.666666,6.6666662 h 1.333333 v 1.3333333 h -1.333333"
         id="path2833" />
      <path
         style="fill:#07159d;fill-opacity:0;stroke-width:1.33333"
         d="M 9.3333328,6.6666662 H 10.666666 V 7.9999995 H 9.3333328"
         id="path2831" />
      <path
         style="fill:#07159d;fill-opacity:1;stroke-width:1.33333"
         d="M 7.9999995,6.6666662 H 9.3333328 V 7.9999995 H 7.9999995"
         id="path2829" />
      <path
         style="fill:#07159d;fill-opacity:0;stroke-width:1.33333"
         d="M 6.6666662,6.6666662 H 7.9999995 V 7.9999995 H 6.6666662"
         id="path2827" />
      <path
         style="fill:#07159d;fill-opacity:0;stroke-width:1.33333"
         d="M 5.333333,6.6666662 H 6.6666662 V 7.9999995 H 5.333333"
         id="path2825" />
      <path
         style="fill:#07159d;fill-opacity:0;stroke-width:1.33333"
         d="M 3.9999997,6.6666662 H 5.333333 V 7.9999995 H 3.9999997"
         id="path2823" />
      <path
         style="fill:#07159d;fill-opacity:1;stroke-width:1.33333"
         d="M 2.6666665,6.6666662 H 3.9999997 V 7.9999995 H 2.6666665"
         id="path2821" />
      <path
         style="fill:#07159d;fill-opacity:0;stroke-width:1.33333"
         d="M 1.3333332,6.6666662 H 2.6666665 V 7.9999995 H 1.3333332"
         id="path2819" />
      <path
         style="fill:#07159d;fill-opacity:0;stroke-width:1.33333"
         d="M 0,6.6666662 H 1.3333332 V 7.9999995 H 0"
         id="path2817" />
      <path
         style="fill:#07159d;fill-opacity:0;stroke-width:1.33333"
         d="m 19.999999,5.333333 h 1.333333 v 1.3333332 h -1.333333"
         id="path2815" />
      <path
         style="fill:#07159d;fill-opacity:0;stroke-width:1.33333"
         d="m 18.666665,5.333333 h 1.333334 v 1.3333332 h -1.333334"
         id="path2813" />
      <path
         style="fill:#07159d;fill-opacity:1;stroke-width:1.33333"
         d="m 17.333332,5.333333 h 1.333333 v 1.3333332 h -1.333333"
         id="path2811" />
      <path
         style="fill:#07159d;fill-opacity:0;stroke-width:1.33333"
         d="m 15.999999,5.333333 h 1.333333 v 1.3333332 h -1.333333"
         id="path2809" />
      <path
         style="fill:#07159d;fill-opacity:0;stroke-width:1.33333"
         d="m 14.666666,5.333333 h 1.333333 v 1.3333332 h -1.333333"
         id="path2807" />
      <path
         style="fill:#07159d;fill-opacity:0;stroke-width:1.33333"
         d="m 13.333332,5.333333 h 1.333334 v 1.3333332 h -1.333334"
         id="path2805" />
      <path
         style="fill:#07159d;fill-opacity:1;stroke-width:1.33333"
         d="m 11.999999,5.333333 h 1.333333 v 1.3333332 h -1.333333"
         id="path2803" />
      <path
         style="fill:#07159d;fill-opacity:0;stroke-width:1.33333"
         d="m 10.666666,5.333333 h 1.333333 v 1.3333332 h -1.333333"
         id="path2801" />
      <path
         style="fill:#07159d;fill-opacity:0;stroke-width:1.33333"
         d="M 9.3333328,5.333333 H 10.666666 V 6.6666662 H 9.3333328"
         id="path2799" />
      <path
         style="fill:#07159d;fill-opacity:1;stroke-width:1.33333"
         d="M 7.9999995,5.333333 H 9.3333328 V 6.6666662 H 7.9999995"
         id="path2797" />
      <path
         style="fill:#07159d;fill-opacity:1;stroke-width:1.33333"
         d="M 6.6666662,5.333333 H 7.9999995 V 6.6666662 H 6.6666662"
         id="path2795" />
      <path
         style="fill:#07159d;fill-opacity:1;stroke-width:1.33333"
         d="M 5.333333,5.333333 H 6.6666662 V 6.6666662 H 5.333333"
         id="path2793" />
      <path
         style="fill:#07159d;fill-opacity:1;stroke-width:1.33333"
         d="M 3.9999997,5.333333 H 5.333333 V 6.6666662 H 3.9999997"
         id="path2791" />
      <path
         style="fill:#07159d;fill-opacity:1;stroke-width:1.33333"
         d="M 2.6666665,5.333333 H 3.9999997 V 6.6666662 H 2.6666665"
         id="path2789" />
      <path
         style="fill:#07159d;fill-opacity:0;stroke-width:1.33333"
         d="M 1.3333332,5.333333 H 2.6666665 V 6.6666662 H 1.3333332"
         id="path2787" />
      <path
         style="fill:#07159d;fill-opacity:0;stroke-width:1.33333"
         d="M 0,5.333333 H 1.3333332 V 6.6666662 H 0"
         id="path2785" />
      <path
         style="fill:#07159d;fill-opacity:0;stroke-width:1.33333"
         d="m 19.999999,3.9999997 h 1.333333 V 5.333333 h -1.333333"
         id="path2783" />
      <path
         style="fill:#07159d;fill-opacity:0;stroke-width:1.33333"
         d="m 18.666665,3.9999997 h 1.333334 V 5.333333 h -1.333334"
         id="path2781" />
      <path
         style="fill:#07159d;fill-opacity:1;stroke-width:1.33333"
         d="m 17.333332,3.9999997 h 1.333333 V 5.333333 h -1.333333"
         id="path2779" />
      <path
         style="fill:#07159d;fill-opacity:0;stroke-width:1.33333"
         d="m 15.999999,3.9999997 h 1.333333 V 5.333333 h -1.333333"
         id="path2777" />
      <path
         style="fill:#07159d;fill-opacity:0;stroke-width:1.33333"
         d="m 14.666666,3.9999997 h 1.333333 V 5.333333 h -1.333333"
         id="path2775" />
      <path
         style="fill:#07159d;fill-opacity:0;stroke-width:1.33333"
         d="m 13.333332,3.9999997 h 1.333334 V 5.333333 h -1.333334"
         id="path2773" />
      <path
         style="fill:#07159d;fill-opacity:1;stroke-width:1.33333"
         d="m 11.999999,3.9999997 h 1.333333 V 5.333333 h -1.333333"
         id="path2771" />
      <path
         style="fill:#07159d;fill-opacity:0;stroke-width:1.33333"
         d="m 10.666666,3.9999997 h 1.333333 V 5.333333 h -1.333333"
         id="path2769" />
      <path
         style="fill:#07159d;fill-opacity:0;stroke-width:1.33333"
         d="M 9.3333328,3.9999997 H 10.666666 V 5.333333 H 9.3333328"
         id="path2767" />
      <path
         style="fill:#07159d;fill-opacity:1;stroke-width:1.33333"
         d="M 7.9999995,3.9999997 H 9.3333328 V 5.333333 H 7.9999995"
         id="path2765" />
      <path
         style="fill:#07159d;fill-opacity:0;stroke-width:1.33333"
         d="M 6.6666662,3.9999997 H 7.9999995 V 5.333333 H 6.6666662"
         id="path2763" />
      <path
         style="fill:#07159d;fill-opacity:0;stroke-width:1.33333"
         d="M 5.333333,3.9999997 H 6.6666662 V 5.333333 H 5.333333"
         id="path2761" />
      <path
         style="fill:#07159d;fill-opacity:0;stroke-width:1.33333"
         d="M 3.9999997,3.9999997 H 5.333333 V 5.333333 H 3.9999997"
         id="path2759" />
      <path
         style="fill:#07159d;fill-opacity:1;stroke-width:1.33333"
         d="M 2.6666665,3.9999997 H 3.9999997 V 5.333333 H 2.6666665"
         id="path2757" />
      <path
         style="fill:#07159d;fill-opacity:0;stroke-width:1.33333"
         d="M 1.3333332,3.9999997 H 2.6666665 V 5.333333 H 1.3333332"
         id="path2755" />
      <path
         style="fill:#07159d;fill-opacity:0;stroke-width:1.33333"
         d="M 0,3.9999997 H 1.3333332 V 5.333333 H 0"
         id="path2753" />
      <path
         style="fill:#07159d;fill-opacity:0;stroke-width:1.33333"
         d="m 19.999999,2.6666665 h 1.333333 v 1.3333332 h -1.333333"
         id="path2751" />
      <path
         style="fill:#07159d;fill-opacity:0;stroke-width:1.33333"
         d="m 18.666665,2.6666665 h 1.333334 v 1.3333332 h -1.333334"
         id="path2749" />
      <path
         style="fill:#07159d;fill-opacity:1;stroke-width:1.33333"
         d="m 17.333332,2.6666665 h 1.333333 v 1.3333332 h -1.333333"
         id="path2747" />
      <path
         style="fill:#07159d;fill-opacity:0;stroke-width:1.33333"
         d="m 15.999999,2.6666665 h 1.333333 v 1.3333332 h -1.333333"
         id="path2745" />
      <path
         style="fill:#07159d;fill-opacity:0;stroke-width:1.33333"
         d="m 14.666666,2.6666665 h 1.333333 v 1.3333332 h -1.333333"
         id="path2743" />
      <path
         style="fill:#07159d;fill-opacity:0;stroke-width:1.33333"
         d="m 13.333332,2.6666665 h 1.333334 v 1.3333332 h -1.333334"
         id="path2741" />
      <path
         style="fill:#07159d;fill-opacity:1;stroke-width:1.33333"
         d="m 11.999999,2.6666665 h 1.333333 v 1.3333332 h -1.333333"
         id="path2739" />
      <path
         style="fill:#07159d;fill-opacity:0;stroke-width:1.33333"
         d="m 10.666666,2.6666665 h 1.333333 v 1.3333332 h -1.333333"
         id="path2737" />
      <path
         style="fill:#07159d;fill-opacity:0;stroke-width:1.33333"
         d="M 9.3333328,2.6666665 H 10.666666 V 3.9999997 H 9.3333328"
         id="path2735" />
      <path
         style="fill:#07159d;fill-opacity:1;stroke-width:1.33333"
         d="M 7.9999995,2.6666665 H 9.3333328 V 3.9999997 H 7.9999995"
         id="path2733" />
      <path
         style="fill:#07159d;fill-opacity:0;stroke-width:1.33333"
         d="M 6.6666662,2.6666665 H 7.9999995 V 3.9999997 H 6.6666662"
         id="path2731" />
      <path
         style="fill:#07159d;fill-opacity:0;stroke-width:1.33333"
         d="M 5.333333,2.6666665 H 6.6666662 V 3.9999997 H 5.333333"
         id="path2729" />
      <path
         style="fill:#07159d;fill-opacity:0;stroke-width:1.33333"
         d="M 3.9999997,2.6666665 H 5.333333 V 3.9999997 H 3.9999997"
         id="path2727" />
      <path
         style="fill:#07159d;fill-opacity:1;stroke-width:1.33333"
         d="M 2.6666665,2.6666665 H 3.9999997 V 3.9999997 H 2.6666665"
         id="path2725" />
      <path
         style="fill:#07159d;fill-opacity:0;stroke-width:1.33333"
         d="M 1.3333332,2.6666665 H 2.6666665 V 3.9999997 H 1.3333332"
         id="path2723" />
      <path
         style="fill:#07159d;fill-opacity:0;stroke-width:1.33333"
         d="M 0,2.6666665 H 1.3333332 V 3.9999997 H 0"
         id="path2721" />
      <path
         style="fill:#07159d;fill-opacity:0;stroke-width:1.33333"
         d="m 19.999999,1.3333332 h 1.333333 v 1.3333333 h -1.333333"
         id="path2719" />
      <path
         style="fill:#07159d;fill-opacity:0;stroke-width:1.33333"
         d="m 18.666665,1.3333332 h 1.333334 v 1.3333333 h -1.333334"
         id="path2717" />
      <path
         style="fill:#07159d;fill-opacity:0;stroke-width:1.33333"
         d="m 17.333332,1.3333332 h 1.333333 v 1.3333333 h -1.333333"
         id="path2715" />
      <path
         style="fill:#07159d;fill-opacity:1;stroke-width:1.33333"
         d="m 15.999999,1.3333332 h 1.333333 v 1.3333333 h -1.333333"
         id="path2713" />
      <path
         style="fill:#07159d;fill-opacity:1;stroke-width:1.33333"
         d="m 14.666666,1.3333332 h 1.333333 v 1.3333333 h -1.333333"
         id="path2711" />
      <path
         style="fill:#07159d;fill-opacity:1;stroke-width:1.33333"
         d="m 13.333332,1.3333332 h 1.333334 v 1.3333333 h -1.333334"
         id="path2709" />
      <path
         style="fill:#07159d;fill-opacity:1;stroke-width:1.33333"
         d="m 11.999999,1.3333332 h 1.333333 v 1.3333333 h -1.333333"
         id="path2707" />
      <path
         style="fill:#07159d;fill-opacity:0;stroke-width:1.33333"
         d="m 10.666666,1.3333332 h 1.333333 v 1.3333333 h -1.333333"
         id="path2705" />
      <path
         style="fill:#07159d;fill-opacity:0;stroke-width:1.33333"
         d="M 9.3333328,1.3333332 H 10.666666 V 2.6666665 H 9.3333328"
         id="path2703" />
      <path
         style="fill:#07159d;fill-opacity:0;stroke-width:1.33333"
         d="M 7.9999995,1.3333332 H 9.3333328 V 2.6666665 H 7.9999995"
         id="path2701" />
      <path
         style="fill:#07159d;fill-opacity:1;stroke-width:1.33333"
         d="M 6.6666662,1.3333332 H 7.9999995 V 2.6666665 H 6.6666662"
         id="path2699" />
      <path
         style="fill:#07159d;fill-opacity:1;stroke-width:1.33333"
         d="M 5.333333,1.3333332 H 6.6666662 V 2.6666665 H 5.333333"
         id="path2697" />
      <path
         style="fill:#07159d;fill-opacity:1;stroke-width:1.33333"
         d="M 3.9999997,1.3333332 H 5.333333 V 2.6666665 H 3.9999997"
         id="path2695" />
      <path
         style="fill:#07159d;fill-opacity:0;stroke-width:1.33333"
         d="M 2.6666665,1.3333332 H 3.9999997 V 2.6666665 H 2.6666665"
         id="path2693" />
      <path
         style="fill:#07159d;fill-opacity:0;stroke-width:1.33333"
         d="M 1.3333332,1.3333332 H 2.6666665 V 2.6666665 H 1.3333332"
         id="path2691" />
      <path
         style="fill:#07159d;fill-opacity:0;stroke-width:1.33333"
         d="M 0,1.3333332 H 1.3333332 V 2.6666665 H 0"
         id="path2689" />
      <path
         style="fill:#07159d;fill-opacity:0;stroke-width:1.33333"
         d="m 19.999999,0 h 1.333333 v 1.3333332 h -1.333333"
         id="path2687" />
      <path
         style="fill:#07159d;fill-opacity:0;stroke-width:1.33333"
         d="m 18.666665,0 h 1.333334 v 1.3333332 h -1.333334"
         id="path2685" />
      <path
         style="fill:#07159d;fill-opacity:0;stroke-width:1.33333"
         d="m 17.333332,0 h 1.333333 v 1.3333332 h -1.333333"
         id="path2683" />
      <path
         style="fill:#07159d;fill-opacity:0;stroke-width:1.33333"
         d="m 15.999999,0 h 1.333333 v 1.3333332 h -1.333333"
         id="path2681" />
      <path
         style="fill:#07159d;fill-opacity:0;stroke-width:1.33333"
         d="m 14.666666,0 h 1.333333 v 1.3333332 h -1.333333"
         id="path2679" />
      <path
         style="fill:#07159d;fill-opacity:0;stroke-width:1.33333"
         d="m 13.333332,0 h 1.333334 v 1.3333332 h -1.333334"
         id="path2677" />
      <path
         style="fill:#07159d;fill-opacity:0;stroke-width:1.33333"
         d="m 11.999999,0 h 1.333333 v 1.3333332 h -1.333333"
         id="path2675" />
      <path
         style="fill:#07159d;fill-opacity:0;stroke-width:1.33333"
         d="m 10.666666,0 h 1.333333 v 1.3333332 h -1.333333"
         id="path2673" />
      <path
         style="fill:#07159d;fill-opacity:0;stroke-width:1.33333"
         d="M 9.3333328,0 H 10.666666 V 1.3333332 H 9.3333328"
         id="path2671" />
      <path
         style="fill:#07159d;fill-opacity:0;stroke-width:1.33333"
         d="M 7.9999995,0 H 9.3333328 V 1.3333332 H 7.9999995"
         id="path2669" />
      <path
         style="fill:#07159d;fill-opacity:0;stroke-width:1.33333"
         d="M 6.6666662,0 H 7.9999995 V 1.3333332 H 6.6666662"
         id="path2667" />
      <path
         style="fill:#07159d;fill-opacity:0;stroke-width:1.33333"
         d="M 5.333333,0 H 6.6666662 V 1.3333332 H 5.333333"
         id="path2665" />
      <path
         style="fill:#07159d;fill-opacity:0;stroke-width:1.33333"
         d="M 3.9999997,0 H 5.333333 V 1.3333332 H 3.9999997"
         id="path2663" />
      <path
         style="fill:#07159d;fill-opacity:0;stroke-width:1.33333"
         d="M 2.6666665,0 H 3.9999997 V 1.3333332 H 2.6666665"
         id="path2661" />
      <path
         style="fill:#07159d;fill-opacity:0;stroke-width:1.33333"
         d="M 1.3333332,0 H 2.6666665 V 1.3333332 H 1.3333332"
         id="path2659" />
      <path
         style="fill:#07159d;fill-opacity:0;stroke-width:1.33333"
         d="M 0,0 H 1.3333332 V 1.3333332 H 0"
         id="path2657" />
    </g>
  </g>
</svg>
