<?xml version="1.0" encoding="UTF-8" standalone="no"?>
<!-- Created with Inkscape (http://www.inkscape.org/) -->

<svg
   xmlns:dc="http://purl.org/dc/elements/1.1/"
   xmlns:cc="http://creativecommons.org/ns#"
   xmlns:rdf="http://www.w3.org/1999/02/22-rdf-syntax-ns#"
   xmlns:svg="http://www.w3.org/2000/svg"
   xmlns="http://www.w3.org/2000/svg"
   xmlns:xlink="http://www.w3.org/1999/xlink"
   xmlns:sodipodi="http://sodipodi.sourceforge.net/DTD/sodipodi-0.dtd"
   xmlns:inkscape="http://www.inkscape.org/namespaces/inkscape"
   id="svg3718"
   version="1.1"
   inkscape:version="0.91 r13725"
   width="92.5"
   height="91.25"
   viewBox="0 0 92.5 91.25"
   sodipodi:docname="adams_logo_no_text.svg">
  <metadata
     id="metadata3724">
    <rdf:RDF>
      <cc:Work
         rdf:about="">
        <dc:format>image/svg+xml</dc:format>
        <dc:type
           rdf:resource="http://purl.org/dc/dcmitype/StillImage" />
        <dc:title></dc:title>
      </cc:Work>
    </rdf:RDF>
  </metadata>
  <defs
     id="defs3722" />
  <sodipodi:namedview
     pagecolor="#ffffff"
     bordercolor="#666666"
     borderopacity="1"
     objecttolerance="10"
     gridtolerance="10"
     guidetolerance="10"
     inkscape:pageopacity="0"
     inkscape:pageshadow="2"
     inkscape:window-width="640"
     inkscape:window-height="480"
     id="namedview3720"
     showgrid="false"
     inkscape:zoom="5.830137"
     inkscape:cx="4.312735"
     inkscape:cy="45.625"
     inkscape:current-layer="svg3718" />
  <path
     inkscape:connector-curvature="0"
     id="path3767"
     d="m 66.25,71.25 0,-8.75 8.75,0 8.75,0 0,8.75 0,8.75 -8.75,0 -8.75,0 0,-8.75 z m -28.75,-17.5 0,-8.75 8.75,0 8.75,0 0,8.75 0,8.75 -8.75,0 -8.75,0 0,-8.75 z m -28.75,-17.5 0,-8.75 8.75,0 8.75,0 0,8.75 0,8.75 -8.75,0 -8.75,0 0,-8.75 z m 57.5,0 0,-8.75 8.75,0 8.75,0 0,8.75 0,8.75 -8.75,0 -8.75,0 0,-8.75 z m -28.75,-17.5 0,-8.75 8.75,0 8.75,0 0,8.75 0,8.75 -8.75,0 -8.75,0 0,-8.75 z"
     style="fill:#0000fe" />
  <path
     inkscape:connector-curvature="0"
     id="path3765"
     d="m 43.75,68.125 0,-5.625 2.5,0 2.5,0 0,3.125 0,3.125 8.75,0 8.75,0 0,2.5 0,2.5 -11.25,0 -11.25,0 0,-5.625 z M 15,50.625 15,45 l 2.5,0 2.5,0 0,3.125 0,3.125 8.75,0 8.75,0 0,2.5 0,2.5 -11.25,0 -11.25,0 0,-5.625 z m 28.75,-11.25 0,-5.625 11.25,0 11.25,0 0,2.5 0,2.5 -8.75,0 -8.75,0 0,3.125 0,3.125 -2.5,0 -2.5,0 0,-5.625 z M 15,21.875 l 0,-5.625 11.25,0 11.25,0 0,2.5 0,2.5 -8.75,0 -8.75,0 0,3.125 0,3.125 -2.5,0 -2.5,0 0,-5.625 z"
     style="fill:#000000" />
</svg>
